<svg viewBox="0 0 38 38" fill="none" xmlns="http://www.w3.org/2000/svg">
<g filter="url(#filter0_dd_508_13115)">
<rect x="3.1" y="2.1" width="31.8" height="31.8" rx="7.9" fill="#046050"/>
<rect x="3.1" y="2.1" width="31.8" height="31.8" rx="7.9" stroke="#D0D5DD" stroke-width="0.2"/>
<path fill-rule="evenodd" clip-rule="evenodd" d="M18.9998 4.03861C11.2892 4.03861 5.03861 10.2892 5.03861 17.9998C5.03861 25.7103 11.2892 31.9609 18.9998 31.9609C26.7103 31.9609 32.9609 25.7103 32.9609 17.9998C32.9609 10.2892 26.7103 4.03861 18.9998 4.03861ZM4.96094 17.9998C4.96094 10.2463 11.2463 3.96094 18.9998 3.96094C26.7532 3.96094 33.0386 10.2463 33.0386 17.9998C33.0386 25.7532 26.7532 32.0386 18.9998 32.0386C11.2463 32.0386 4.96094 25.7532 4.96094 17.9998Z" fill="#D0D5DD"/>
<g clip-path="url(#clip0_508_13115)">
<path d="M15.8672 29.5028C15.2493 29.6684 14.6671 29.5926 14.1205 29.2754C13.574 28.9583 13.2179 28.4907 13.0524 27.8728C12.8868 27.2549 12.9619 26.6729 13.2777 26.1267C13.5934 25.5806 14.0592 25.225 14.6752 25.0599C14.8551 25.0117 15.0487 24.9879 15.2559 24.9884C15.4631 24.989 15.6712 25.0087 15.88 25.0477L17.8105 20.6611C17.4264 20.4189 17.1375 20.1296 16.9438 19.7933C16.7502 19.4569 16.6338 19.087 16.5947 18.6833L11.9057 18.4257C11.8096 18.8396 11.6187 19.1992 11.3332 19.5043C11.0477 19.8095 10.6884 20.02 10.2553 20.1361C9.63801 20.3015 9.05537 20.2258 8.50736 19.9091C7.95936 19.5923 7.60257 19.125 7.437 18.5071C7.27143 17.8892 7.34723 17.3069 7.66438 16.7604C7.98151 16.2139 8.44904 15.8578 9.06696 15.6922C9.68486 15.5267 10.267 15.6022 10.8134 15.9188C11.3598 16.2354 11.7157 16.7022 11.881 17.3193C11.9037 17.4039 11.9174 17.4713 11.9223 17.5218C11.9272 17.5723 11.9345 17.6156 11.9442 17.6518L16.6317 18.0005C16.6946 17.6558 16.852 17.3095 17.1039 16.9616C17.3558 16.6137 17.6963 16.3392 18.1255 16.1379L16.9091 11.598C16.2671 11.6493 15.7295 11.5022 15.2961 11.1567C14.8628 10.8113 14.5794 10.3897 14.4461 9.89205C14.2832 9.28426 14.36 8.70575 14.6765 8.15654C14.9929 7.60732 15.46 7.24992 16.078 7.08435C16.6959 6.91878 17.278 6.99429 17.8244 7.31088C18.3708 7.62748 18.7267 8.09434 18.892 8.71146C19.0236 9.20247 18.9881 9.70589 18.7855 10.2217C18.583 10.7376 18.1909 11.1338 17.6094 11.4104L18.8258 15.9503C19.2981 15.91 19.7243 15.9791 20.1043 16.1577C20.4843 16.3362 20.8038 16.5547 21.0629 16.8132L24.9346 14.1659C24.9065 14.1251 24.8868 14.0839 24.8757 14.0424L24.8244 13.8512C24.6591 13.2341 24.7348 12.6516 25.0516 12.1037C25.3684 11.5558 25.8357 11.1991 26.4536 11.0335C27.0715 10.8679 27.6537 10.9437 28.2003 11.2609C28.7468 11.578 29.1029 12.0455 29.2685 12.6635C29.434 13.2814 29.3584 13.8635 29.0417 14.4099C28.725 14.9564 28.258 15.3123 27.6407 15.4777C27.2128 15.5923 26.7971 15.5873 26.3936 15.4624C25.9901 15.3376 25.6443 15.124 25.3562 14.8216L21.4243 17.3892C21.5922 17.7584 21.6769 18.139 21.6785 18.5311C21.68 18.9232 21.5718 19.3081 21.3538 19.6858L25.2342 22.5283C25.3817 22.4025 25.547 22.287 25.7302 22.1819C25.9134 22.0767 26.095 22 26.2749 21.9518C26.8908 21.7867 27.4723 21.8627 28.0194 22.1797C28.5664 22.4968 28.9227 22.9642 29.0883 23.5821C29.2538 24.2 29.178 24.7823 28.8609 25.3288C28.5438 25.8753 28.0762 26.2314 27.4583 26.397C26.8404 26.5625 26.2581 26.4863 25.7113 26.1684C25.1646 25.8505 24.8083 25.382 24.6424 24.7629C24.5695 24.4908 24.5411 24.2239 24.5573 23.9624C24.5735 23.7009 24.6641 23.4273 24.8291 23.1415L20.9478 20.2475C20.6744 20.5795 20.2923 20.8113 19.8012 20.9429C19.3102 21.0745 18.8593 21.0659 18.4485 20.9172L16.5221 25.3674C16.7838 25.5388 16.9928 25.7313 17.1492 25.9448C17.3056 26.1583 17.4211 26.4039 17.4955 26.6817C17.6611 27.2997 17.5856 27.8831 17.269 28.4316C16.9524 28.9802 16.4851 29.3372 15.8672 29.5028Z" fill="white"/>
</g>
</g>
<defs>
<filter id="filter0_dd_508_13115" x="0" y="0" width="38" height="38" filterUnits="userSpaceOnUse" color-interpolation-filters="sRGB">
<feFlood flood-opacity="0" result="BackgroundImageFix"/>
<feColorMatrix in="SourceAlpha" type="matrix" values="0 0 0 0 0 0 0 0 0 0 0 0 0 0 0 0 0 0 127 0" result="hardAlpha"/>
<feOffset dy="1"/>
<feGaussianBlur stdDeviation="1"/>
<feColorMatrix type="matrix" values="0 0 0 0 0.0627451 0 0 0 0 0.0941176 0 0 0 0 0.156863 0 0 0 0.06 0"/>
<feBlend mode="normal" in2="BackgroundImageFix" result="effect1_dropShadow_508_13115"/>
<feColorMatrix in="SourceAlpha" type="matrix" values="0 0 0 0 0 0 0 0 0 0 0 0 0 0 0 0 0 0 127 0" result="hardAlpha"/>
<feOffset dy="1"/>
<feGaussianBlur stdDeviation="1.5"/>
<feColorMatrix type="matrix" values="0 0 0 0 0.0627451 0 0 0 0 0.0941176 0 0 0 0 0.156863 0 0 0 0.1 0"/>
<feBlend mode="normal" in2="effect1_dropShadow_508_13115" result="effect2_dropShadow_508_13115"/>
<feBlend mode="normal" in="SourceGraphic" in2="effect2_dropShadow_508_13115" result="shape"/>
</filter>
<clipPath id="clip0_508_13115">
<rect width="24" height="24" fill="white" transform="translate(4.30273 9.51562) rotate(-15)"/>
</clipPath>
</defs>
</svg>