<svg viewBox="0 0 200 200" fill="none" xmlns="http://www.w3.org/2000/svg">
    <path fill-rule="evenodd" clip-rule="evenodd"
        d="M71.2284 54.7664H34.0427V37.1643C34.0373 32.2332 35.991 27.5018 39.474 24.0112C42.9571 20.5205 47.6841 18.5565 52.6152 18.5511C57.5463 18.5457 62.2776 20.4994 65.7683 23.9824C69.2589 27.4654 71.223 32.1924 71.2284 37.1236V54.7664ZM118.511 70.6586C116.37 65.9173 112.905 61.8953 108.533 59.0761C104.161 56.2568 99.0678 54.7603 93.8655 54.7664H84.7998V23.5929C84.7998 18.6617 86.7587 13.9326 90.2456 10.4457C93.7324 6.95888 98.4616 5 103.393 5C108.324 5 113.053 6.95888 116.54 10.4457C120.027 13.9326 121.986 18.6617 121.986 23.5929V59.8421C121.986 63.8864 120.696 67.6186 118.511 70.6586ZM94.7477 71.7714C94.7477 71.7714 99.272 72.9934 100.941 74.6392C102.61 76.2851 103.654 78.4603 103.895 80.7918C104.136 83.1234 103.558 85.4661 102.26 87.4181C100.963 89.3702 99.0264 90.81 96.7834 91.4907L68.1884 100.176C66.254 100.776 64.5978 102.047 63.5193 103.761C62.4407 105.475 62.0109 107.518 62.3077 109.522C62.6044 111.525 63.608 113.356 65.1371 114.683C66.6662 116.011 68.6198 116.748 70.6448 116.761C75.4898 116.761 81.6648 119.176 86.6591 123.736C91.572 128.215 94.4898 133.969 94.3677 139.954C94.3436 141.068 94.5392 142.176 94.9433 143.214C95.3473 144.253 95.9519 145.201 96.7225 146.006C97.4931 146.81 98.4147 147.455 99.4346 147.904C100.454 148.352 101.553 148.596 102.667 148.62C103.781 148.644 104.888 148.448 105.927 148.044C106.965 147.64 107.913 147.035 108.718 146.265C109.523 145.494 110.168 144.573 110.616 143.553C111.065 142.533 111.308 141.435 111.332 140.321C111.576 128.337 105.727 118.159 98.0998 111.196C97.4365 110.586 96.753 109.997 96.0506 109.432L101.71 107.722C106.388 106.297 110.594 103.633 113.884 100.014C117.174 96.395 119.424 91.9543 120.398 87.1614C123.606 85.1519 126.44 82.5985 128.771 79.6157C131.907 83.6555 135.961 86.8887 140.597 89.0468C145.233 91.2048 150.317 92.2254 155.427 92.0236C160.537 91.8219 165.524 90.4037 169.976 87.8869C174.427 85.37 178.214 81.8272 181.021 77.5529C181.655 80.6833 181.971 83.8681 181.971 87.1071V101.14C181.971 139.221 150.228 151.924 150.228 151.924V188.214C150.228 190.014 149.513 191.74 148.24 193.013C146.968 194.285 145.242 195 143.442 195H56.5034C54.7037 195 52.9778 194.285 51.7052 193.013C50.4326 191.74 49.7177 190.014 49.7177 188.214V155.236C30.7177 148.64 17.9606 122.366 17.9741 104.451C17.9741 88.9664 21.462 72.7893 38.6434 72.7893L94.7477 71.7714ZM154.15 19.4671C149.219 19.4671 144.49 21.426 141.003 24.9129C137.516 28.3997 135.557 33.1289 135.557 38.06V59.8421C135.557 64.7733 137.516 69.5024 141.003 72.9893C144.49 76.4761 149.219 78.435 154.15 78.435C159.081 78.435 163.81 76.4761 167.297 72.9893C170.784 69.5024 172.743 64.7733 172.743 59.8421V38.06C172.743 33.1289 170.784 28.3997 167.297 24.9129C163.81 21.426 159.081 19.4671 154.15 19.4671Z"
        fill="white" />
</svg>